<?xml version="1.0" standalone="no"?>
<!DOCTYPE svg PUBLIC "-//W3C//DTD SVG 20010904//EN"
 "http://www.w3.org/TR/2001/REC-SVG-20010904/DTD/svg10.dtd">
<svg version="1.0" xmlns="http://www.w3.org/2000/svg"
 width="260.000000pt" height="260.000000pt" viewBox="0 0 260.000000 260.000000"
 preserveAspectRatio="xMidYMid meet">
<metadata>
Created by potrace 1.11, written by Peter Selinger 2001-2013
</metadata>
<g transform="translate(0.000000,260.000000) scale(0.100000,-0.100000)"
fill="#000000" stroke="none">
<path d="M1086 2230 c-103 -204 -184 -375 -181 -380 8 -14 732 -13 740 1 5 7
-354 731 -370 747 -1 2 -87 -164 -189 -368z m519 -328 c-2 -2 -54 32 -116 74
-63 43 -133 91 -156 107 l-43 28 0 204 c0 112 -3 212 -6 222 -3 10 69 -128
159 -307 90 -179 163 -326 162 -328z"/>
<path d="M1301 2305 l-1 -190 28 -17 c70 -45 118 -77 188 -126 l76 -53 -88
167 c-48 92 -113 222 -145 288 l-58 121 0 -190z"/>
<path d="M1205 1772 c-61 -20 -130 -86 -165 -157 -22 -43 -25 -64 -25 -155 0
-124 17 -171 89 -248 46 -49 46 -49 46 -121 0 -41 4 -71 10 -71 6 0 10 28 10
65 l0 64 41 -14 c23 -8 61 -15 84 -15 23 0 61 7 84 15 l41 14 0 -69 0 -70
-134 0 c-78 0 -136 -4 -138 -10 -1 -5 -30 -27 -63 -48 l-59 -39 -46 21 c-61
28 -159 28 -221 -1 -101 -46 -169 -152 -177 -278 -10 -155 60 -281 187 -338
67 -30 170 -21 236 19 67 41 120 119 142 211 18 72 18 72 81 113 35 22 67 41
71 43 8 2 131 -73 132 -82 16 -143 42 -206 115 -270 182 -160 441 -30 461 232
18 232 -157 399 -362 344 l-60 -16 -75 50 -75 50 3 77 c4 75 5 78 49 125 71
76 88 123 88 247 0 95 -3 111 -28 162 -35 71 -100 129 -168 151 -63 21 -109
21 -174 -1z m180 -863 c-14 -27 -30 -62 -36 -76 -5 -14 -12 -23 -15 -20 -3 3
6 28 20 56 33 64 33 66 -4 39 -28 -21 -30 -26 -28 -80 1 -31 -1 -60 -5 -64 -4
-4 -7 24 -7 63 l0 71 48 31 c26 17 48 31 50 31 1 0 -9 -23 -23 -51z m431 -11
c45 -11 106 -63 131 -112 46 -88 53 -190 22 -291 -47 -154 -189 -223 -348
-170 -104 34 -165 142 -166 295 0 72 4 94 27 143 62 132 171 176 334 135z"/>
<path d="M1627 890 c-112 -34 -177 -168 -157 -325 20 -161 107 -245 254 -245
74 0 121 19 170 67 56 55 80 121 80 223 0 133 -56 237 -150 276 -36 15 -152
18 -197 4z"/>
<path d="M1180 1077 l0 -53 115 0 115 1 0 53 c0 28 -2 52 -4 52 -2 0 -21 -7
-42 -16 -42 -18 -138 -14 -157 5 -21 21 -27 11 -27 -42z"/>
<path d="M179 414 c-96 -201 -176 -373 -177 -381 -3 -10 2 -13 15 -10 10 3
181 9 381 13 199 4 362 9 362 11 0 2 -40 77 -88 166 -49 89 -138 253 -197 365
-60 111 -112 202 -115 202 -4 0 -85 -165 -181 -366z m250 -177 c20 -13 55 -36
79 -50 23 -15 59 -38 80 -51 20 -13 54 -33 75 -45 20 -13 37 -23 37 -24 0 -1
-37 -3 -82 -3 -216 -4 -532 -15 -537 -19 -2 -3 -11 -5 -20 -5 -8 0 14 19 50
43 35 24 107 73 159 110 52 36 102 66 109 67 8 0 31 -10 50 -23z"/>
<path d="M335 224 c-52 -43 -55 -45 -55 -39 0 3 -6 1 -12 -5 -38 -31 -92 -70
-98 -70 -4 0 -19 -10 -33 -22 l-26 -23 187 3 c103 2 225 6 272 10 l85 8 -44
23 c-24 12 -49 27 -55 32 -33 27 -170 109 -183 109 -4 0 -21 -12 -38 -26z"/>
<path d="M2027 457 c-87 -177 -169 -346 -183 -376 l-24 -54 372 8 c205 4 376
10 380 13 4 4 -62 140 -147 302 -207 398 -224 430 -233 430 -4 0 -78 -146
-165 -323z m152 46 l0 -218 -92 -60 c-51 -33 -119 -79 -152 -102 -32 -24 -64
-43 -70 -43 -5 0 -4 4 3 9 8 4 14 12 14 17 1 15 289 612 296 613 1 1 2 -97 1
-216z"/>
<path d="M2084 508 c-44 -90 -106 -218 -139 -285 -34 -68 -57 -123 -53 -123 4
0 8 4 8 10 0 5 15 17 33 26 17 9 34 20 37 23 3 3 49 35 102 71 l98 65 0 188
c0 103 -2 187 -4 187 -2 0 -39 -73 -82 -162z"/>
</g>
</svg>
